<mxfile host="Electron" agent="Mozilla/5.0 (Windows NT 10.0; Win64; x64) AppleWebKit/537.36 (KHTML, like Gecko) draw.io/28.0.6 Chrome/138.0.7204.100 Electron/37.2.3 Safari/537.36" version="28.0.6">
  <diagram name="Page-1" id="4ObQTW215OzNPkxm49MR">
    <mxGraphModel dx="2212" dy="1322" grid="0" gridSize="10" guides="1" tooltips="1" connect="1" arrows="1" fold="1" page="1" pageScale="1" pageWidth="850" pageHeight="1100" background="#ffffff" math="0" shadow="0">
      <root>
        <mxCell id="0" />
        <mxCell id="1" parent="0" />
        <mxCell id="FzcOPkheEmC1ADxn6XFt-23" value="&lt;span class=&quot;notion-enable-hover&quot; data-token-index=&quot;0&quot; style=&quot;&quot;&gt;&lt;font style=&quot;color: light-dark(rgb(0, 0, 0), rgb(0, 0, 0)); font-size: 14px;&quot;&gt;Issuer Status Management&lt;/font&gt;&lt;/span&gt;" style="shape=umlFrame;whiteSpace=wrap;html=1;pointerEvents=0;recursiveResize=0;container=1;collapsible=0;width=196;fillColor=#eeeeee;strokeColor=#36393d;height=29;" vertex="1" parent="1">
          <mxGeometry x="82" y="66" width="687" height="245" as="geometry" />
        </mxCell>
        <mxCell id="FzcOPkheEmC1ADxn6XFt-6" style="edgeStyle=orthogonalEdgeStyle;rounded=0;orthogonalLoop=1;jettySize=auto;html=1;entryX=0;entryY=0.25;entryDx=0;entryDy=0;exitX=1;exitY=0.25;exitDx=0;exitDy=0;fillColor=#eeeeee;strokeColor=#36393d;fontColor=light-dark(#000000,#000000);" edge="1" parent="FzcOPkheEmC1ADxn6XFt-23" source="FzcOPkheEmC1ADxn6XFt-1" target="FzcOPkheEmC1ADxn6XFt-5">
          <mxGeometry relative="1" as="geometry" />
        </mxCell>
        <mxCell id="FzcOPkheEmC1ADxn6XFt-11" style="edgeStyle=orthogonalEdgeStyle;rounded=0;orthogonalLoop=1;jettySize=auto;html=1;exitX=0.5;exitY=1;exitDx=0;exitDy=0;entryX=0.5;entryY=0;entryDx=0;entryDy=0;fillColor=#eeeeee;strokeColor=#36393d;fontColor=light-dark(#000000,#000000);" edge="1" parent="FzcOPkheEmC1ADxn6XFt-23" source="FzcOPkheEmC1ADxn6XFt-1" target="FzcOPkheEmC1ADxn6XFt-10">
          <mxGeometry relative="1" as="geometry" />
        </mxCell>
        <mxCell id="FzcOPkheEmC1ADxn6XFt-1" value="Active" style="html=1;align=center;verticalAlign=top;rounded=1;absoluteArcSize=1;arcSize=10;dashed=0;fillColor=#eeeeee;strokeColor=#36393d;fontColor=light-dark(#000000,#000000);whiteSpace=wrap;spacingTop=6;" vertex="1" parent="FzcOPkheEmC1ADxn6XFt-23">
          <mxGeometry x="219" y="57" width="140" height="40" as="geometry" />
        </mxCell>
        <mxCell id="FzcOPkheEmC1ADxn6XFt-21" style="edgeStyle=orthogonalEdgeStyle;rounded=0;orthogonalLoop=1;jettySize=auto;html=1;entryX=0;entryY=0.5;entryDx=0;entryDy=0;fontColor=light-dark(#000000,#000000);labelBackgroundColor=none;strokeColor=light-dark(#000000,#000000);" edge="1" parent="FzcOPkheEmC1ADxn6XFt-23" source="FzcOPkheEmC1ADxn6XFt-2" target="FzcOPkheEmC1ADxn6XFt-1">
          <mxGeometry relative="1" as="geometry" />
        </mxCell>
        <mxCell id="FzcOPkheEmC1ADxn6XFt-2" value="" style="ellipse;html=1;fillColor=#eeeeee;strokeColor=#36393d;" vertex="1" parent="FzcOPkheEmC1ADxn6XFt-23">
          <mxGeometry x="23" y="62" width="30" height="30" as="geometry" />
        </mxCell>
        <mxCell id="FzcOPkheEmC1ADxn6XFt-8" style="edgeStyle=orthogonalEdgeStyle;rounded=0;orthogonalLoop=1;jettySize=auto;html=1;exitX=0;exitY=0.75;exitDx=0;exitDy=0;entryX=1;entryY=0.75;entryDx=0;entryDy=0;fillColor=#eeeeee;strokeColor=#36393d;fontColor=light-dark(#000000,#000000);" edge="1" parent="FzcOPkheEmC1ADxn6XFt-23" source="FzcOPkheEmC1ADxn6XFt-5" target="FzcOPkheEmC1ADxn6XFt-1">
          <mxGeometry relative="1" as="geometry" />
        </mxCell>
        <mxCell id="FzcOPkheEmC1ADxn6XFt-15" style="edgeStyle=orthogonalEdgeStyle;rounded=0;orthogonalLoop=1;jettySize=auto;html=1;exitX=0.5;exitY=1;exitDx=0;exitDy=0;entryX=1;entryY=0.5;entryDx=0;entryDy=0;fillColor=#eeeeee;strokeColor=#36393d;fontColor=light-dark(#000000,#000000);" edge="1" parent="FzcOPkheEmC1ADxn6XFt-23" source="FzcOPkheEmC1ADxn6XFt-5" target="FzcOPkheEmC1ADxn6XFt-10">
          <mxGeometry relative="1" as="geometry" />
        </mxCell>
        <mxCell id="FzcOPkheEmC1ADxn6XFt-5" value="Suspended" style="html=1;align=center;verticalAlign=top;rounded=1;absoluteArcSize=1;arcSize=10;dashed=0;fillColor=#eeeeee;strokeColor=#36393d;fontColor=light-dark(#000000,#000000);whiteSpace=wrap;spacingTop=6;" vertex="1" parent="FzcOPkheEmC1ADxn6XFt-23">
          <mxGeometry x="529" y="57" width="140" height="40" as="geometry" />
        </mxCell>
        <mxCell id="FzcOPkheEmC1ADxn6XFt-7" value="Owner Suspend Issuer" style="text;html=1;align=center;verticalAlign=middle;resizable=0;points=[];autosize=1;fillColor=none;fontColor=light-dark(#000000,#000000);" vertex="1" parent="FzcOPkheEmC1ADxn6XFt-23">
          <mxGeometry x="374" y="47" width="140" height="26" as="geometry" />
        </mxCell>
        <mxCell id="FzcOPkheEmC1ADxn6XFt-9" value="Owner Reinstates Issuer" style="text;html=1;align=center;verticalAlign=middle;resizable=0;points=[];autosize=1;fillColor=none;fontColor=light-dark(#000000,#000000);" vertex="1" parent="FzcOPkheEmC1ADxn6XFt-23">
          <mxGeometry x="370" y="84" width="149" height="26" as="geometry" />
        </mxCell>
        <mxCell id="FzcOPkheEmC1ADxn6XFt-10" value="Deactivated" style="html=1;align=center;verticalAlign=top;rounded=1;absoluteArcSize=1;arcSize=10;dashed=0;fillColor=#eeeeee;strokeColor=#36393d;fontColor=light-dark(#000000,#000000);whiteSpace=wrap;spacingTop=6;" vertex="1" parent="FzcOPkheEmC1ADxn6XFt-23">
          <mxGeometry x="219" y="185" width="140" height="40" as="geometry" />
        </mxCell>
        <mxCell id="FzcOPkheEmC1ADxn6XFt-13" value="Owner Deactivate Issuer" style="text;html=1;align=center;verticalAlign=middle;resizable=0;points=[];autosize=1;fillColor=none;fontColor=light-dark(#000000,#000000);" vertex="1" parent="FzcOPkheEmC1ADxn6XFt-23">
          <mxGeometry x="283" y="126" width="150" height="30" as="geometry" />
        </mxCell>
        <mxCell id="FzcOPkheEmC1ADxn6XFt-16" value="Owner Deactivate Issuer" style="text;align=center;verticalAlign=middle;resizable=0;points=[];autosize=1;fillColor=none;fontColor=light-dark(#000000,#000000);" vertex="1" parent="FzcOPkheEmC1ADxn6XFt-23">
          <mxGeometry x="408" y="185" width="149" height="26" as="geometry" />
        </mxCell>
        <mxCell id="FzcOPkheEmC1ADxn6XFt-4" value="Owner Grants Role" style="text;html=1;align=center;verticalAlign=middle;resizable=0;points=[];autosize=1;fillColor=none;fontColor=light-dark(#000000,#000000);" vertex="1" parent="FzcOPkheEmC1ADxn6XFt-23">
          <mxGeometry x="76" y="57" width="121" height="26" as="geometry" />
        </mxCell>
      </root>
    </mxGraphModel>
  </diagram>
</mxfile>
